HIERARCHY
ROOT torus_large
{
	OFFSET 0.000000 0.000000 0.000000
	CHANNELS 6 Xposition Yposition Zposition Yrotation Xrotation Zrotation
	End Site
	{
		OFFSET 0.000000 0.000000 0.000000
	}
}
MOTION
Frames: 166
Frame Time: 0.008333334
4.391679 3.777167 0.097106 127.392200 2.828565 -100.272100 
4.391679 3.777167 0.097106 127.392200 2.828565 -100.272100 
4.391679 3.777167 0.097106 127.392200 2.828565 -100.272100 
4.391679 3.777167 0.097106 127.392200 2.828565 -100.272100 
4.391679 3.777167 0.097106 127.392200 2.828565 -100.272100 
4.391679 3.777167 0.097106 127.392200 2.828565 -100.272100 
4.391679 3.777167 0.097106 127.392200 2.828565 -100.272100 
4.391679 3.777167 0.097106 127.392200 2.828565 -100.272100 
4.391679 3.777167 0.097106 127.392200 2.828565 -100.272100 
4.391679 3.777167 0.097106 127.392200 2.828565 -100.272100 
4.391679 3.777167 0.097106 127.392200 2.828565 -100.272100 
4.391679 3.777167 0.097106 127.392200 2.828565 -100.272100 
4.391679 3.777167 0.097106 127.392200 2.828565 -100.272100 
4.391679 3.777167 0.097106 127.392200 2.828565 -100.272100 
4.391679 3.777167 0.097106 127.392200 2.828565 -100.272100 
4.391679 3.777167 0.097106 127.392200 2.828565 -100.272100 
4.391679 3.777167 0.097106 127.392200 2.828565 -100.272100 
4.391679 3.777167 0.097106 127.392200 2.828565 -100.272100 
4.391679 3.777167 0.097106 127.392200 2.828565 -100.272100 
4.391679 3.777167 0.097106 127.392200 2.828565 -100.272100 
4.391679 3.777167 0.097106 127.392200 2.828565 -100.272100 
4.391679 3.777167 0.097106 127.392200 2.828565 -100.272100 
4.391679 3.777167 0.097106 127.392200 2.828565 -100.272100 
4.391679 3.777167 0.097106 127.392200 2.828565 -100.272100 
4.391679 3.777167 0.097106 127.392200 2.828565 -100.272100 
4.391679 3.777167 0.097106 127.392200 2.828565 -100.272100 
4.391679 3.777167 0.097106 127.392200 2.828565 -100.272100 
4.391679 3.777167 0.097106 127.392200 2.828565 -100.272100 
4.391679 3.777167 0.097106 127.392200 2.828565 -100.272100 
4.391679 3.777167 0.097106 127.392200 2.828565 -100.272100 
4.391679 3.777167 0.097106 127.392200 2.828565 -100.272100 
4.391679 3.777167 0.097106 127.392200 2.828565 -100.272100 
4.391679 3.777167 0.097106 127.392200 2.828565 -100.272100 
4.391679 3.777167 0.097106 127.392200 2.828565 -100.272100 
4.391679 3.777167 0.097106 127.392200 2.828565 -100.272100 
4.391679 3.777167 0.097106 127.392200 2.828565 -100.272100 
4.391679 3.777167 0.097106 127.392200 2.828565 -100.272100 
4.391679 3.777167 0.097106 127.392200 2.828565 -100.272100 
4.391679 3.777167 0.097106 127.392200 2.828565 -100.272100 
4.391679 3.777167 0.097106 127.392200 2.828565 -100.272100 
4.391679 3.777167 0.097106 127.392200 2.828565 -100.272100 
4.391679 3.777167 0.097106 127.392200 2.828565 -100.272100 
4.391679 3.777167 0.097106 127.392200 2.828565 -100.272100 
4.391679 3.777167 0.097106 127.392200 2.828565 -100.272100 
4.391679 3.777167 0.097106 127.392200 2.828565 -100.272100 
4.391679 3.777167 0.097106 127.392200 2.828565 -100.272100 
4.391679 3.777167 0.097106 127.392200 2.828565 -100.272100 
4.391679 3.777167 0.097106 127.392200 2.828565 -100.272100 
4.391679 3.777167 0.097106 127.392200 2.828565 -100.272100 
4.391679 3.777167 0.097106 127.392200 2.828565 -100.272100 
4.391679 3.777167 0.097106 127.392200 2.828565 -100.272100 
4.391679 3.777167 0.097106 127.392200 2.828565 -100.272100 
4.391679 3.777167 0.097106 127.392200 2.828565 -100.272100 
4.391679 3.777167 0.097106 127.392200 2.828565 -100.272100 
4.391679 3.777167 0.097106 127.392200 2.828565 -100.272100 
4.391679 3.777167 0.097106 127.392200 2.828565 -100.272100 
4.391679 3.777167 0.097106 127.392200 2.828565 -100.272100 
4.391679 3.777167 0.097106 127.392200 2.828565 -100.272100 
4.391679 3.777167 0.097106 127.392200 2.828565 -100.272100 
4.391679 3.777167 0.097106 127.392200 2.828565 -100.272100 
4.391679 3.777167 0.097106 127.392200 2.828565 -100.272100 
4.391679 3.777167 0.097106 127.392200 2.828565 -100.272100 
4.391679 3.777167 0.097106 127.392200 2.828565 -100.272100 
4.391679 3.777167 0.097106 127.392200 2.828565 -100.272100 
4.391679 3.777167 0.097106 127.392200 2.828565 -100.272100 
4.391679 3.777167 0.097106 127.392200 2.828565 -100.272100 
4.391679 3.777167 0.097106 127.392200 2.828565 -100.272100 
4.391679 3.777167 0.097106 127.392200 2.828565 -100.272100 
4.391679 3.777167 0.097106 127.392200 2.828565 -100.272100 
4.391679 3.777167 0.097106 127.392200 2.828565 -100.272100 
4.391679 3.777167 0.097106 127.392200 2.828565 -100.272100 
4.391679 3.777167 0.097106 127.392200 2.828565 -100.272100 
4.391679 3.777167 0.097106 127.392200 2.828565 -100.272100 
4.391679 3.777167 0.097106 127.392200 2.828565 -100.272100 
4.391679 3.777167 0.097106 127.392200 2.828565 -100.272100 
4.391679 3.777167 0.097106 127.392200 2.828565 -100.272100 
4.391679 3.777167 0.097106 127.392200 2.828565 -100.272100 
4.391679 3.777167 0.097106 127.392200 2.828565 -100.272100 
4.391679 3.777167 0.097106 127.392200 2.828565 -100.272100 
4.391679 3.777167 0.097106 127.392200 2.828565 -100.272100 
4.391679 3.777167 0.097106 127.392200 2.828565 -100.272100 
4.391679 3.777167 0.097106 127.392200 2.828565 -100.272100 
4.391679 3.777167 0.097106 127.392200 2.828565 -100.272100 
4.391679 3.777167 0.097106 127.392200 2.828565 -100.272100 
4.391679 3.777167 0.097106 127.392200 2.828565 -100.272100 
4.391679 3.777167 0.097106 127.392200 2.828565 -100.272100 
4.391679 3.777167 0.097106 127.392200 2.828565 -100.272100 
4.391679 3.777167 0.097106 127.392200 2.828565 -100.272100 
4.391679 3.777167 0.097106 127.392200 2.828565 -100.272100 
4.391679 3.777167 0.097106 127.392200 2.828565 -100.272100 
4.391679 3.777167 0.097106 127.392200 2.828565 -100.272100 
4.391679 3.777167 0.097106 127.392200 2.828565 -100.272100 
4.391679 3.777167 0.097106 127.392200 2.828565 -100.272100 
4.391679 3.777167 0.097106 127.392200 2.828565 -100.272100 
4.391679 3.777167 0.097106 127.392200 2.828565 -100.272100 
4.391679 3.777167 0.097106 127.392200 2.828565 -100.272100 
4.391679 3.777167 0.097106 127.392200 2.828565 -100.272100 
4.391679 3.777167 0.097106 127.392200 2.828565 -100.272100 
4.391679 3.777167 0.097106 127.392200 2.828565 -100.272100 
4.391679 3.777167 0.097106 127.392200 2.828565 -100.272100 
4.391679 3.777167 0.097106 127.392200 2.828565 -100.272100 
4.391679 3.777167 0.097106 127.392200 2.828565 -100.272100 
4.391679 3.777167 0.097106 127.392200 2.828565 -100.272100 
4.391679 3.777167 0.097106 127.392200 2.828565 -100.272100 
4.391679 3.777167 0.097106 127.392200 2.828565 -100.272100 
4.391679 3.777167 0.097106 127.392200 2.828565 -100.272100 
4.391679 3.777167 0.097106 127.392200 2.828565 -100.272100 
4.391679 3.777167 0.097106 127.392200 2.828565 -100.272100 
4.391679 3.777167 0.097106 127.392200 2.828565 -100.272100 
4.391679 3.777167 0.097106 127.392200 2.828565 -100.272100 
4.391679 3.777167 0.097106 127.392200 2.828565 -100.272100 
4.391679 3.777167 0.097106 127.392200 2.828565 -100.272100 
4.391679 3.777167 0.097106 127.392200 2.828565 -100.272100 
4.391679 3.777167 0.097106 127.392200 2.828565 -100.272100 
4.391679 3.777167 0.097106 127.392200 2.828565 -100.272100 
4.391679 3.777167 0.097106 127.392200 2.828565 -100.272100 
4.391679 3.777167 0.097106 127.392200 2.828565 -100.272100 
4.391679 3.777167 0.097106 127.392200 2.828565 -100.272100 
4.391679 3.777167 0.097106 127.392200 2.828565 -100.272100 
4.391679 3.777167 0.097106 127.392200 2.828565 -100.272100 
4.391679 3.777167 0.097106 127.392200 2.828565 -100.272100 
4.391679 3.777167 0.097106 127.392200 2.828565 -100.272100 
4.391679 3.777167 0.097106 127.392200 2.828565 -100.272100 
4.391679 3.777167 0.097106 127.392200 2.828565 -100.272100 
4.391679 3.777167 0.097106 127.392200 2.828565 -100.272100 
4.391679 3.777167 0.097106 127.392200 2.828565 -100.272100 
4.391679 3.777167 0.097106 127.392200 2.828565 -100.272100 
4.391679 3.777167 0.097106 127.392200 2.828565 -100.272100 
4.391679 3.777167 0.097106 127.392200 2.828565 -100.272100 
4.391679 3.777167 0.097106 127.392200 2.828565 -100.272100 
4.391679 3.777167 0.097106 127.392200 2.828565 -100.272100 
4.391679 3.777167 0.097106 127.392200 2.828565 -100.272100 
4.391679 3.777167 0.097106 127.392200 2.828565 -100.272100 
4.391679 3.777167 0.097106 127.392200 2.828565 -100.272100 
4.391679 3.777167 0.097106 127.392200 2.828565 -100.272100 
4.391679 3.777167 0.097106 127.392200 2.828565 -100.272100 
4.391679 3.777167 0.097106 127.392200 2.828565 -100.272100 
4.391679 3.777167 0.097106 127.392200 2.828565 -100.272100 
4.391679 3.777167 0.097106 127.392200 2.828565 -100.272100 
4.391679 3.777167 0.097106 127.392200 2.828565 -100.272100 
4.391679 3.777167 0.097106 127.392200 2.828565 -100.272100 
4.391679 3.777167 0.097106 127.392200 2.828565 -100.272100 
4.391679 3.777167 0.097106 127.392200 2.828565 -100.272100 
4.391679 3.777167 0.097106 127.392200 2.828565 -100.272100 
4.391679 3.777167 0.097106 127.392200 2.828565 -100.272100 
4.391679 3.777167 0.097106 127.392200 2.828565 -100.272100 
4.391679 3.777167 0.097106 127.392200 2.828565 -100.272100 
4.391679 3.777167 0.097106 127.392200 2.828565 -100.272100 
4.336706 3.773292 0.165441 127.831000 3.070258 -100.755200 
4.284704 3.770291 0.232769 128.467700 3.422176 -100.941200 
4.232703 3.767290 0.300097 129.103500 3.776134 -101.123200 
4.183488 3.766539 0.365392 129.496400 4.315428 -101.256400 
4.136877 3.767204 0.428451 130.180700 4.802179 -101.364100 
4.092128 3.769147 0.488703 130.591800 5.510561 -101.454000 
4.049760 3.773438 0.541750 130.909000 6.337403 -101.811300 
4.007391 3.777728 0.594798 131.221500 7.166191 -102.164600 
3.967128 3.784398 0.641655 131.160200 8.025038 -102.643600 
3.928656 3.792039 0.684813 131.068500 8.864022 -102.997400 
3.890982 3.799648 0.725509 131.074100 9.366967 -103.211100 
3.853288 3.808082 0.764270 130.950600 10.136340 -103.454200 
3.815118 3.817313 0.801250 131.143100 10.600360 -103.549300 
3.776158 3.828575 0.838279 131.734000 11.058250 -103.527900 
3.737197 3.839837 0.875308 132.326000 11.515910 -103.501600 
3.695930 3.852504 0.913138 133.278200 11.804510 -103.156300 
3.654662 3.865171 0.950969 134.233100 12.087440 -102.805600 
3.611014 3.877998 0.988026 135.445900 12.469160 -102.292700 
